{
  "accessors": [
    {
      "name": "Layer_1_1_positions",
      "componentType": 5126,
      "count": 32567,
      "min": [
        22.96525764465332,
        -38.02023696899414,
        -99.82476043701172
      ],
      "max": [
        80.3817367553711,
        23.2294864654541,
        -37.6114387512207
      ],
      "type": "VEC3",
      "bufferView": 0,
      "byteOffset": 0
    },
    {
      "name": "Layer_1_1_normals",
      "componentType": 5126,
      "count": 32567,
      "min": [
        -0.999904990196228,
        -0.9997990131378174,
        -0.9999840259552002
      ],
      "max": [
        0.9999390244483948,
        0.9999759793281555,
        0.9999719858169556
      ],
      "type": "VEC3",
      "bufferView": 0,
      "byteOffset": 440400
    },
    {
      "name": "Layer_1_1_texcoords",
      "componentType": 5126,
      "count": 32567,
      "min": [
        0.00007699999696342275,
        0.08334500342607498
      ],
      "max": [
        0.9999560117721558,
        0.9999970197677612
      ],
      "type": "VEC2",
      "bufferView": 1,
      "byteOffset": 0
    },
    {
      "name": "Layer_1_1_0_indices",
      "componentType": 5123,
      "count": 164628,
      "min": [
        0
      ],
      "max": [
        32566
      ],
      "type": "SCALAR",
      "bufferView": 2,
      "byteOffset": 0
    },
    {
      "name": "Layer_2_1_positions",
      "componentType": 5126,
      "count": 2457,
      "min": [
        21.500883102416992,
        -22.597545623779297,
        -81.80152130126953
      ],
      "max": [
        36.407806396484375,
        2.294356107711792,
        -54.5389289855957
      ],
      "type": "VEC3",
      "bufferView": 0,
      "byteOffset": 390804
    },
    {
      "name": "Layer_2_1_normals",
      "componentType": 5126,
      "count": 2457,
      "min": [
        -0.9997699856758118,
        -0.9993429780006409,
        -0.9972130060195923
      ],
      "max": [
        0.9964370131492615,
        0.9993489980697632,
        0.9931120276451111
      ],
      "type": "VEC3",
      "bufferView": 0,
      "byteOffset": 831204
    },
    {
      "name": "Layer_2_1_texcoords",
      "componentType": 5126,
      "count": 2457,
      "min": [
        0.0003319999959785491,
        0.00016700000560376793
      ],
      "max": [
        0.8707919716835022,
        0.9999210238456726
      ],
      "type": "VEC2",
      "bufferView": 1,
      "byteOffset": 260536
    },
    {
      "name": "Layer_2_1_0_indices",
      "componentType": 5123,
      "count": 12348,
      "min": [
        0
      ],
      "max": [
        2456
      ],
      "type": "SCALAR",
      "bufferView": 2,
      "byteOffset": 329256
    },
    {
      "name": "Layer_5_1_positions",
      "componentType": 5126,
      "count": 1676,
      "min": [
        27.35045623779297,
        -5.87682580947876,
        -65.04046630859375
      ],
      "max": [
        34.93001937866211,
        2.321249008178711,
        -57.531715393066406
      ],
      "type": "VEC3",
      "bufferView": 0,
      "byteOffset": 420288
    },
    {
      "name": "Layer_5_1_normals",
      "componentType": 5126,
      "count": 1676,
      "min": [
        -0.9983829855918884,
        -0.9977859854698181,
        -0.999875009059906
      ],
      "max": [
        0.9958980083465576,
        0.9989389777183533,
        0.9968039989471436
      ],
      "type": "VEC3",
      "bufferView": 0,
      "byteOffset": 860688
    },
    {
      "name": "Layer_5_1_texcoords",
      "componentType": 5126,
      "count": 1676,
      "min": [
        0.00021899999410379678,
        0.3434250056743622
      ],
      "max": [
        0.9999120235443115,
        0.9998149871826172
      ],
      "type": "VEC2",
      "bufferView": 1,
      "byteOffset": 280192
    },
    {
      "name": "Layer_5_1_0_indices",
      "componentType": 5123,
      "count": 8556,
      "min": [
        0
      ],
      "max": [
        1675
      ],
      "type": "SCALAR",
      "bufferView": 2,
      "byteOffset": 353952
    }
  ],
  "asset": {
    "generator": "obj2gltf",
    "version": "2.0"
  },
  "buffers": [
    {
      "name": "kay-head",
      "byteLength": 2850648,
      "uri": "data:application/octet-stream;base64,"
    }
  ],
  "bufferViews": [
    {
      "name": "bufferView_0",
      "buffer": 0,
      "byteLength": 880800,
      "byteOffset": 0,
      "byteStride": 12,
      "target": 34962
    },
    {
      "name": "bufferView_1",
      "buffer": 0,
      "byteLength": 293600,
      "byteOffset": 880800,
      "byteStride": 8,
      "target": 34962
    },
    {
      "name": "bufferView_2",
      "buffer": 0,
      "byteLength": 371064,
      "byteOffset": 1174400,
      "target": 34963
    },
    {
      "buffer": 0,
      "byteOffset": 1545464,
      "byteLength": 199981
    },
    {
      "buffer": 0,
      "byteOffset": 1745445,
      "byteLength": 565453
    },
    {
      "buffer": 0,
      "byteOffset": 2310898,
      "byteLength": 539747
    }
  ],
  "extensionsUsed": [
    "KHR_materials_pbrSpecularGlossiness"
  ],
  "extensionsRequired": [
    "KHR_materials_pbrSpecularGlossiness"
  ],
  "images": [
    {
      "name": "kay-head_Layer_1",
      "mimeType": "image/png",
      "bufferView": 3
    },
    {
      "name": "kay-head_Layer_2",
      "mimeType": "image/png",
      "bufferView": 4
    },
    {
      "name": "kay-head_Layer_5",
      "mimeType": "image/png",
      "bufferView": 5
    }
  ],
  "materials": [
    {
      "name": "Layer_1_mtl",
      "extensions": {
        "KHR_materials_pbrSpecularGlossiness": {
          "diffuseTexture": {
            "index": 0
          },
          "diffuseFactor": [
            1,
            1,
            1,
            1
          ],
          "specularFactor": [
            0,
            0,
            0
          ],
          "glossinessFactor": 0
        }
      },
      "emissiveFactor": [
        0,
        0,
        0
      ],
      "alphaMode": "OPAQUE",
      "doubleSided": false
    },
    {
      "name": "Layer_2_mtl",
      "extensions": {
        "KHR_materials_pbrSpecularGlossiness": {
          "diffuseTexture": {
            "index": 1
          },
          "diffuseFactor": [
            1,
            1,
            1,
            1
          ],
          "specularFactor": [
            0,
            0,
            0
          ],
          "glossinessFactor": 0
        }
      },
      "emissiveFactor": [
        0,
        0,
        0
      ],
      "alphaMode": "OPAQUE",
      "doubleSided": false
    },
    {
      "name": "Layer_5_mtl",
      "extensions": {
        "KHR_materials_pbrSpecularGlossiness": {
          "diffuseTexture": {
            "index": 2
          },
          "diffuseFactor": [
            1,
            1,
            1,
            1
          ],
          "specularFactor": [
            0,
            0,
            0
          ],
          "glossinessFactor": 0
        }
      },
      "emissiveFactor": [
        0,
        0,
        0
      ],
      "alphaMode": "OPAQUE",
      "doubleSided": false
    }
  ],
  "meshes": [
    {
      "name": "Layer_1_1",
      "primitives": [
        {
          "attributes": {
            "POSITION": 0,
            "NORMAL": 1,
            "TEXCOORD_0": 2
          },
          "indices": 3,
          "material": 0,
          "mode": 4
        }
      ]
    },
    {
      "name": "Layer_2_1",
      "primitives": [
        {
          "attributes": {
            "POSITION": 4,
            "NORMAL": 5,
            "TEXCOORD_0": 6
          },
          "indices": 7,
          "material": 1,
          "mode": 4
        }
      ]
    },
    {
      "name": "Layer_5_1",
      "primitives": [
        {
          "attributes": {
            "POSITION": 8,
            "NORMAL": 9,
            "TEXCOORD_0": 10
          },
          "indices": 11,
          "material": 2,
          "mode": 4
        }
      ]
    }
  ],
  "nodes": [
    {
      "name": "Layer_1",
      "mesh": 0
    },
    {
      "name": "Layer_2",
      "mesh": 1
    },
    {
      "name": "Layer_5",
      "mesh": 2
    }
  ],
  "samplers": [
    {
      "magFilter": 9729,
      "minFilter": 9986,
      "wrapS": 10497,
      "wrapT": 10497
    }
  ],
  "scene": 0,
  "scenes": [
    {
      "nodes": [
        0,
        1,
        2
      ]
    }
  ],
  "textures": [
    {
      "name": "kay-head_Layer_1",
      "sampler": 0,
      "source": 0
    },
    {
      "name": "kay-head_Layer_2",
      "sampler": 0,
      "source": 1
    },
    {
      "name": "kay-head_Layer_5",
      "sampler": 0,
      "source": 2
    }
  ]
}
