{
  "accessors": [
    {
      "name": "Layer_5_1_positions",
      "componentType": 5126,
      "count": 26421,
      "min": [
        9.710681915283203,
        24.902189254760742,
        -65.83478546142578
      ],
      "max": [
        59.53911590576172,
        73.63307189941406,
        -16.93508529663086
      ],
      "type": "VEC3",
      "bufferView": 0,
      "byteOffset": 0
    },
    {
      "name": "Layer_5_1_normals",
      "componentType": 5126,
      "count": 26421,
      "min": [
        -0.9997730255126953,
        -0.9996410012245178,
        -0.999459981918335
      ],
      "max": [
        0.999692976474762,
        0.9996529817581177,
        0.9995560050010681
      ],
      "type": "VEC3",
      "bufferView": 0,
      "byteOffset": 317052
    },
    {
      "name": "Layer_5_1_texcoords",
      "componentType": 5126,
      "count": 26421,
      "min": [
        0.000012000000424450263,
        0.09139599651098251
      ],
      "max": [
        0.9999769926071167,
        0.9999939799308777
      ],
      "type": "VEC2",
      "bufferView": 1,
      "byteOffset": 0
    },
    {
      "name": "Layer_5_1_0_indices",
      "componentType": 5123,
      "count": 133278,
      "min": [
        0
      ],
      "max": [
        26420
      ],
      "type": "SCALAR",
      "bufferView": 2,
      "byteOffset": 0
    }
  ],
  "asset": {
    "generator": "obj2gltf",
    "version": "2.0"
  },
  "buffers": [
    {
      "name": "kay-left",
      "byteLength": 1778036,
      "uri": "data:application/octet-stream;base64,"
    }
  ],
  "bufferViews": [
    {
      "name": "bufferView_0",
      "buffer": 0,
      "byteLength": 634104,
      "byteOffset": 0,
      "byteStride": 12,
      "target": 34962
    },
    {
      "name": "bufferView_1",
      "buffer": 0,
      "byteLength": 211368,
      "byteOffset": 634104,
      "byteStride": 8,
      "target": 34962
    },
    {
      "name": "bufferView_2",
      "buffer": 0,
      "byteLength": 266556,
      "byteOffset": 845472,
      "target": 34963
    },
    {
      "buffer": 0,
      "byteOffset": 1112028,
      "byteLength": 666005
    }
  ],
  "extensionsUsed": [
    "KHR_materials_pbrSpecularGlossiness"
  ],
  "extensionsRequired": [
    "KHR_materials_pbrSpecularGlossiness"
  ],
  "images": [
    {
      "name": "kay-left_Layer_5",
      "mimeType": "image/png",
      "bufferView": 3
    }
  ],
  "materials": [
    {
      "name": "Layer_5_mtl",
      "extensions": {
        "KHR_materials_pbrSpecularGlossiness": {
          "diffuseTexture": {
            "index": 0
          },
          "diffuseFactor": [
            1,
            1,
            1,
            1
          ],
          "specularFactor": [
            0,
            0,
            0
          ],
          "glossinessFactor": 0
        }
      },
      "emissiveFactor": [
        0,
        0,
        0
      ],
      "alphaMode": "OPAQUE",
      "doubleSided": false
    }
  ],
  "meshes": [
    {
      "name": "Layer_5_1",
      "primitives": [
        {
          "attributes": {
            "POSITION": 0,
            "NORMAL": 1,
            "TEXCOORD_0": 2
          },
          "indices": 3,
          "material": 0,
          "mode": 4
        }
      ]
    }
  ],
  "nodes": [
    {
      "name": "Layer_5",
      "mesh": 0
    }
  ],
  "samplers": [
    {
      "magFilter": 9729,
      "minFilter": 9986,
      "wrapS": 10497,
      "wrapT": 10497
    }
  ],
  "scene": 0,
  "scenes": [
    {
      "nodes": [
        0
      ]
    }
  ],
  "textures": [
    {
      "name": "kay-left_Layer_5",
      "sampler": 0,
      "source": 0
    }
  ]
}
